HIERARCHY
ROOT SpineBase
{
  OFFSET 0.000000 0.000000 0.000000
  CHANNELS 6 Xposition Yposition Zposition Zrotation Xrotation Yrotation
  JOINT SpineMid
  {
    OFFSET 0.000000 33.478257 0.000000
    CHANNELS 3 Zrotation Xrotation Yrotation
    JOINT SpineShoulder
    {
      OFFSET -0.139257 24.939327 -0.852150
      CHANNELS 3 Zrotation Xrotation Yrotation
      JOINT Neck
      {
        OFFSET -0.120111 8.282524 -0.631529
        CHANNELS 3 Zrotation Xrotation Yrotation
        JOINT Head
        {
          OFFSET 1.758939 9.979324 3.483239
          CHANNELS 3 Zrotation Xrotation Yrotation
          End Site
          {
            OFFSET 0 0 0
          }
        }
      }
      JOINT ShoulderLeft
      {
        OFFSET -13.813421 -5.313982 3.280110
        CHANNELS 3 Zrotation Xrotation Yrotation
        JOINT ElbowLeft
        {
          OFFSET -0.421384 -31.507694 -3.158221
          CHANNELS 3 Zrotation Xrotation Yrotation
          JOINT WristLeft
          {
            OFFSET 3.502145 -22.013460 4.669990
            CHANNELS 3 Zrotation Xrotation Yrotation
            JOINT HandLeft
            {
              OFFSET 0.991981 -7.251682 -5.727495
              CHANNELS 3 Zrotation Xrotation Yrotation
              JOINT HandTipLeft
              {
                OFFSET 1.688156 -5.491766 -1.508865
                CHANNELS 3 Zrotation Xrotation Yrotation
                End Site
                {
                  OFFSET 0 0 0
                }
              }
              JOINT ThumbLeft
              {
                OFFSET -3.144564 -2.012088 0.368668
                CHANNELS 3 Zrotation Xrotation Yrotation
                End Site
                {
                  OFFSET 0 0 0
                }
              }
            }
          }
        }
      }
      JOINT ShoulderRight
      {
        OFFSET 10.049360 -4.811710 -12.348639
        CHANNELS 3 Zrotation Xrotation Yrotation
        JOINT ElbowRight
        {
          OFFSET 8.691180 -28.346864 -0.869307
          CHANNELS 3 Zrotation Xrotation Yrotation
          JOINT WristRight
          {
            OFFSET 5.624493 -24.395260 5.838212
            CHANNELS 3 Zrotation Xrotation Yrotation
            JOINT HandRight
            {
              OFFSET 0.080162 -4.090807 0.008911
              CHANNELS 3 Zrotation Xrotation Yrotation
              JOINT HandTipRight
              {
                OFFSET 0.277056 -6.110025 -0.918407
                CHANNELS 3 Zrotation Xrotation Yrotation
                End Site
                {
                  OFFSET 0 0 0
                }
              }
              JOINT ThumbRight
              {
                OFFSET -4.144569 0.856576 0.771812
                CHANNELS 3 Zrotation Xrotation Yrotation
                End Site
                {
                  OFFSET 0 0 0
                }
              }
            }
          }
        }
      }
    }
  }
  JOINT HipLeft
  {
    OFFSET -6.340009 1.131623 -0.848805
    CHANNELS 3 Zrotation Xrotation Yrotation
    JOINT KneeLeft
    {
      OFFSET 1.250156 -33.522378 -2.180729
      CHANNELS 3 Zrotation Xrotation Yrotation
      JOINT AnkleLeft
      {
        OFFSET -5.565397 -32.485602 2.175432
        CHANNELS 3 Zrotation Xrotation Yrotation
        JOINT FootLeft
        {
          OFFSET -5.991554 -2.626783 -11.606609
          CHANNELS 3 Zrotation Xrotation Yrotation
          End Site
          {
            OFFSET 0 0 0
          }
        }
      }
    }
  }
  JOINT HipRight
  {
    OFFSET 4.799212 1.878805 -6.144460
    CHANNELS 3 Zrotation Xrotation Yrotation
    JOINT KneeRight
    {
      OFFSET -3.039011 -33.549543 -2.580623
      CHANNELS 3 Zrotation Xrotation Yrotation
      JOINT AnkleRight
      {
        OFFSET 1.070688 -33.211952 -7.359299
        CHANNELS 3 Zrotation Xrotation Yrotation
        JOINT FootRight
        {
          OFFSET -6.158643 -2.566116 -11.529693
          CHANNELS 3 Zrotation Xrotation Yrotation
          End Site
          {
            OFFSET 0 0 0
          }
        }
      }
    }
  }
}
MOTION
Frames: 9
Frame Time: 0.033333
64.961593 71.101641 291.019736 -0.168962 -0.025499 24.317908 0.164471 -0.046342 -24.317879 -0.000000 0.000000 0.000000 -1.472359 2.222055 0.149449 0.000000 0.000000 0.000000 1.667454 3.907041 -0.275415 -1.652523 -3.913371 0.162076 -0.277629 -3.472784 -0.270915 8.898279 3.929492 -2.482207 0.000000 0.000000 0.000000 0.000000 0.000000 0.000000 -0.000000 0.000000 0.000000 -0.000000 0.000000 0.000000 -1.181998 -8.796034 -0.266199 -1.301213 10.527222 0.939832 0.000000 0.000000 0.000000 0.000000 0.000000 0.000000 1.543696 -0.059314 -24.377935 -2.344379 -0.729801 -0.000041 1.082688 0.172238 0.041442 0.000000 0.000000 0.000000 0.164471 -0.046342 -24.317879 -0.000000 0.000000 0.000000 -0.000000 0.000000 0.000000 0.000000 0.000000 0.000000
64.973551 71.114118 291.068469 -0.223322 -0.011595 24.477317 0.208055 -0.081977 -24.477191 -0.000000 0.000000 0.000000 -1.663081 2.197475 0.222996 0.000000 0.000000 0.000000 1.484085 3.208607 -0.232646 -1.473368 -3.213538 0.149746 -0.250192 -1.779828 -0.050402 9.019026 -0.342297 -3.077836 0.000000 0.000000 0.000000 0.000000 0.000000 0.000000 -0.000000 0.000000 0.000000 0.605657 0.508101 0.259366 -1.235930 -10.147224 -0.513921 -2.062136 10.368768 1.017748 0.000000 0.000000 0.000000 0.000000 0.000000 0.000000 1.388609 -0.193670 -24.532776 -2.231915 -0.308311 -0.040346 1.111589 -0.079541 0.088983 0.000000 0.000000 0.000000 0.208055 -0.081977 -24.477191 -0.000000 0.000000 0.000000 -0.826502 2.056032 -1.098909 0.000000 0.000000 0.000000
65.067078 71.119165 291.089278 -0.183315 0.035911 24.671341 0.151592 -0.109151 -24.671139 -0.000000 0.000000 0.000000 -1.943390 2.386314 0.295179 0.000000 0.000000 0.000000 1.402513 0.979712 -0.165570 -1.634729 -1.879651 -0.056802 -0.793815 -4.583958 0.236252 7.011154 0.144197 -3.685790 0.000000 0.000000 0.000000 0.000000 0.000000 0.000000 -0.000000 0.000000 0.000000 0.638642 0.970192 0.371396 -0.203180 -12.214826 -0.551188 -4.476787 11.452275 1.635210 0.000000 0.000000 0.000000 0.000000 0.000000 0.000000 0.949388 -0.340823 -24.716876 -1.898635 0.259527 -0.088366 1.077678 -0.380977 0.141218 0.000000 0.000000 0.000000 0.151592 -0.109151 -24.671139 -0.000000 0.000000 0.000000 -0.618348 1.575630 -0.925726 0.000000 0.000000 0.000000
65.129073 71.114602 291.095150 -0.187713 0.091452 24.582722 0.132655 -0.161252 -24.582386 -0.000000 0.000000 0.000000 -2.142186 2.500514 0.349939 0.000000 0.000000 0.000000 0.694431 -3.654773 0.001448 -1.851742 2.171888 -0.378786 -0.851832 -4.917645 1.183441 4.692341 -0.661039 -3.933401 0.000000 0.000000 0.000000 0.000000 0.000000 0.000000 -0.000000 0.000000 0.000000 0.388918 1.009265 0.322776 0.779128 -11.896947 -0.408351 -6.111603 10.319809 1.918503 0.000000 0.000000 0.000000 0.000000 0.000000 0.000000 0.132655 -0.161252 -24.582386 -0.906478 0.781838 -0.188296 0.909126 -0.778757 0.200660 0.000000 0.000000 0.000000 0.132655 -0.161252 -24.582386 -0.000000 0.000000 0.000000 0.495085 -0.923426 -0.004415 0.000000 0.000000 0.000000
65.178949 71.124047 291.174641 -0.224214 0.078917 24.866686 0.170242 -0.165884 -24.866285 -0.000000 0.000000 0.000000 -2.362619 2.632420 0.410220 0.000000 0.000000 0.000000 -0.366275 -10.182096 0.141878 -1.878820 8.461450 -0.591304 -1.152204 -2.151959 2.951608 0.433925 -5.069807 -4.438626 0.000000 0.000000 0.000000 0.000000 0.000000 0.000000 -0.000000 0.000000 0.000000 0.186665 1.129057 0.303755 0.907731 -11.680504 -0.388923 -6.643222 7.985554 1.898750 0.000000 0.000000 0.000000 0.000000 0.000000 0.000000 0.170242 -0.165884 -24.866285 -0.863001 1.052966 -0.230105 0.867368 -1.049372 0.245979 0.000000 0.000000 0.000000 0.170242 -0.165884 -24.866285 -0.000000 0.000000 0.000000 2.738675 -5.622095 1.843197 0.000000 0.000000 0.000000
65.232540 71.142078 291.337167 -0.283576 0.027652 25.378375 0.244359 -0.146522 -25.377994 -0.000000 0.000000 0.000000 -2.495848 2.552135 0.471518 0.000000 0.000000 0.000000 -1.831763 -17.658167 0.139263 -1.160785 16.491074 -0.631451 -2.739119 1.281462 5.467115 -1.426289 -6.554890 -5.168990 0.000000 0.000000 0.000000 0.000000 0.000000 0.000000 -0.000000 0.000000 0.000000 0.296044 1.443379 0.400886 0.544289 -11.458458 -0.507191 -6.551591 8.175367 1.922124 0.000000 0.000000 0.000000 0.000000 0.000000 0.000000 0.244359 -0.146522 -25.377994 -0.821576 1.276651 -0.264460 0.827664 -1.272713 0.282807 0.000000 0.000000 0.000000 0.244359 -0.146522 -25.377994 -0.458482 0.702453 0.126894 9.408702 -17.305313 6.956309 0.000000 0.000000 0.000000
65.295234 71.172667 291.596132 -0.364017 -0.076200 25.851618 0.360815 -0.090153 -25.851576 -0.000000 0.000000 0.000000 -2.586373 2.351549 0.535498 0.000000 0.000000 0.000000 -3.329920 -24.141496 -0.051780 -0.278012 23.622915 -0.697294 -5.170474 6.747647 8.798991 -3.702369 -8.897111 -6.358023 0.000000 0.000000 0.000000 0.000000 0.000000 0.000000 -0.000000 0.000000 0.000000 0.354752 1.732380 0.480370 0.430278 -11.869127 -0.593372 -8.484933 5.084181 2.207362 0.000000 0.000000 0.000000 0.000000 0.000000 0.000000 0.360815 -0.090153 -25.851576 -0.773527 1.453072 -0.290853 0.781142 -1.448993 0.310541 0.000000 0.000000 0.000000 0.360815 -0.090153 -25.851576 -0.506986 0.761685 0.140081 13.018565 -22.474493 10.178978 0.000000 0.000000 0.000000
65.350592 71.204237 291.905572 -0.468092 -0.202488 26.256545 0.509373 -0.025488 -26.257259 -0.000000 0.000000 0.000000 -2.791861 2.199992 0.633508 0.000000 0.000000 0.000000 -4.588879 -28.755161 -0.332225 0.648156 28.894440 -0.817881 -7.175642 11.094859 11.329221 -4.031465 -12.017938 -8.044375 0.000000 0.000000 0.000000 0.000000 0.000000 0.000000 0.263533 0.745156 0.218476 0.187423 1.100453 0.310873 -0.160414 -11.590991 -0.696561 -10.259873 4.527066 2.718564 0.000000 0.000000 0.000000 0.000000 0.000000 0.000000 0.509373 -0.025488 -26.257259 -0.885735 1.540604 -0.311224 0.736413 -1.640172 1.268497 0.000000 0.000000 0.000000 0.571535 0.903855 -26.308343 -0.314966 -0.051439 0.222367 18.286623 -28.597072 14.982650 0.000000 0.000000 0.000000
65.413858 71.239282 292.246987 -0.563669 -0.349221 26.717328 0.660494 0.058504 -26.719383 -0.000000 0.000000 0.000000 -3.017945 2.051868 0.737955 0.000000 0.000000 0.000000 -5.503569 -31.109880 -0.569992 1.477622 31.777158 -0.989574 -8.430070 14.323466 12.868232 -5.197772 -12.921283 -8.403652 0.000000 0.000000 0.000000 0.000000 0.000000 0.000000 0.144539 0.874269 0.262358 0.514024 1.027298 0.331592 -0.678447 -11.961901 -0.806249 -5.248113 5.657080 1.484527 0.000000 0.000000 0.000000 0.000000 0.000000 0.000000 1.242416 0.780650 -26.702532 -1.191100 0.829209 -0.387222 0.823816 -1.884625 1.545109 0.000000 0.000000 0.000000 1.108912 1.309573 -26.831654 -0.679968 -0.394468 0.312448 24.412502 -34.237427 20.777158 0.000000 0.000000 0.000000
